<svg width="103" height="103" viewBox="0 0 103 103" fill="none" xmlns="http://www.w3.org/2000/svg">
<path fill-rule="evenodd" clip-rule="evenodd" d="M0.5 52C28.9427 52 52 28.9427 52 0.5C52 28.7758 74.7876 51.7293 103 51.9976V52.0024C74.9541 52.2691 52.2691 74.9541 52.0024 103H51.9976C51.7293 74.7876 28.7758 52 0.5 52ZM0 51.9976C0.166479 51.9992 0.333147 52 0.5 52C0.333147 52 0.166479 52.0008 0 52.0024V51.9976ZM51.9976 0H52.0024C52.0008 0.166479 52 0.333147 52 0.5C52 0.333147 51.9992 0.166479 51.9976 0Z" fill="#848183"/>
</svg>
