<svg width="45" height="38" viewBox="0 0 45 38" fill="none" xmlns="http://www.w3.org/2000/svg">
<g filter="url(#filter0_d_81_343)">
<path d="M6.25 13C5.14543 13 4.25 13.8954 4.25 15C4.25 16.1046 5.14543 17 6.25 17L6.25 13ZM39.6642 16.4142C40.4453 15.6332 40.4453 14.3668 39.6642 13.5858L26.9363 0.857864C26.1552 0.0768156 24.8889 0.0768156 24.1079 0.857864C23.3268 1.63891 23.3268 2.90524 24.1079 3.68629L35.4216 15L24.1079 26.3137C23.3268 27.0948 23.3268 28.3611 24.1079 29.1421C24.8889 29.9232 26.1552 29.9232 26.9363 29.1421L39.6642 16.4142ZM6.25 17L38.25 17V13L6.25 13L6.25 17Z" fill="#0055B0"/>
</g>
<defs>
<filter id="filter0_d_81_343" x="0.25" y="0.271973" width="44" height="37.4561" filterUnits="userSpaceOnUse" color-interpolation-filters="sRGB">
<feFlood flood-opacity="0" result="BackgroundImageFix"/>
<feColorMatrix in="SourceAlpha" type="matrix" values="0 0 0 0 0 0 0 0 0 0 0 0 0 0 0 0 0 0 127 0" result="hardAlpha"/>
<feOffset dy="4"/>
<feGaussianBlur stdDeviation="2"/>
<feComposite in2="hardAlpha" operator="out"/>
<feColorMatrix type="matrix" values="0 0 0 0 0 0 0 0 0 0 0 0 0 0 0 0 0 0 0.25 0"/>
<feBlend mode="normal" in2="BackgroundImageFix" result="effect1_dropShadow_81_343"/>
<feBlend mode="normal" in="SourceGraphic" in2="effect1_dropShadow_81_343" result="shape"/>
</filter>
</defs>
</svg>
