<svg width="59" height="58" viewBox="0 0 59 58" fill="none" xmlns="http://www.w3.org/2000/svg">
<path d="M49.7571 8.43183C47.1007 5.74855 43.9366 3.62106 40.4494 2.17343C36.9621 0.7258 33.2215 -0.012981 29.4458 0.000172602C13.6256 0.000172602 0.731799 12.8939 0.731799 28.7142C0.731799 33.7848 2.06464 38.7105 4.55647 43.0567L0.5 57.9497L15.7118 53.9512C19.9131 56.2402 24.636 57.4571 29.4458 57.4571C45.266 57.4571 58.1598 44.5634 58.1598 28.7431C58.1598 21.0648 55.1754 13.8501 49.7571 8.43183ZM29.4458 52.5894C25.1575 52.5894 20.9562 51.4304 17.2764 49.2573L16.4072 48.7357L7.36702 51.1117L9.77193 42.3033L9.19243 41.4051C6.80997 37.6006 5.54491 33.2031 5.54161 28.7142C5.54161 15.5596 16.2623 4.83896 29.4168 4.83896C35.7913 4.83896 41.7891 7.33079 46.2801 11.8509C48.5039 14.0644 50.2662 16.6974 51.4649 19.597C52.6635 22.4967 53.2747 25.6055 53.2631 28.7431C53.321 41.8977 42.6003 52.5894 29.4458 52.5894ZM42.5424 34.7409C41.818 34.3932 38.2831 32.6547 37.6457 32.394C36.9792 32.1622 36.5156 32.0463 36.0231 32.7417C35.5305 33.466 34.1687 35.0886 33.763 35.5522C33.3574 36.0448 32.9228 36.1027 32.1984 35.7261C31.474 35.3784 29.1561 34.5961 26.4324 32.1622C24.2883 30.2498 22.8685 27.9029 22.4339 27.1785C22.0283 26.4541 22.376 26.0775 22.7526 25.7008C23.0713 25.3821 23.477 24.8605 23.8247 24.4549C24.1724 24.0492 24.3173 23.7305 24.5491 23.2669C24.7809 22.7743 24.665 22.3687 24.4911 22.021C24.3173 21.6733 22.8685 18.1384 22.289 16.6896C21.7095 15.2989 21.1011 15.4727 20.6664 15.4437H19.2757C18.7831 15.4437 18.0297 15.6176 17.3633 16.3419C16.7259 17.0663 14.8715 18.8048 14.8715 22.3397C14.8715 25.8746 17.4502 29.2937 17.7979 29.7573C18.1456 30.2498 22.8685 37.4935 30.0543 40.5938C31.7638 41.3472 33.0966 41.7818 34.1397 42.1005C35.8492 42.651 37.4139 42.5641 38.6598 42.3903C40.0506 42.1874 42.9191 40.6518 43.4986 38.9712C44.107 37.2907 44.107 35.8709 43.9042 35.5522C43.7014 35.2335 43.2668 35.0886 42.5424 34.7409Z" fill="#000407"/>
</svg>
