<svg width="60" height="36" viewBox="0 0 60 36" fill="none" xmlns="http://www.w3.org/2000/svg">
<path d="M57.428 35.0806H50.9623C48.5172 35.0806 47.7805 33.1001 43.3973 28.7141C39.5667 25.0223 37.9488 24.5633 36.9798 24.5633C35.6397 24.5633 35.2742 24.9316 35.2742 26.7761V32.5901C35.2742 34.1626 34.7642 35.0834 30.6558 35.0834C26.6702 34.8157 22.8051 33.6049 19.3791 31.5507C15.953 29.4966 13.064 26.6579 10.95 23.2684C5.93043 17.021 2.43784 9.68851 0.75 1.85411C0.75 0.885107 1.11833 0.00677397 2.96567 0.00677397H9.42567C11.086 0.00677397 11.6838 0.746275 12.3355 2.45477C15.472 11.6858 20.8242 19.7154 22.9973 19.7154C23.8303 19.7154 24.193 19.3471 24.193 17.2703V7.76161C23.9182 3.42378 21.6147 3.05827 21.6147 1.48861C21.6438 1.07449 21.8332 0.688045 22.1427 0.411355C22.4522 0.134664 22.8574 -0.010472 23.2722 0.00677397H33.4268C34.8152 0.00677397 35.2742 0.698107 35.2742 2.35844V15.1934C35.2742 16.5789 35.8692 17.0379 36.2885 17.0379C37.1215 17.0379 37.7618 16.5789 39.289 15.0546C42.5625 11.0624 45.2369 6.61458 47.228 1.85127C47.4318 1.27937 47.8171 0.789835 48.3251 0.457322C48.833 0.12481 49.4358 -0.0324231 50.0415 0.0096071H56.5043C58.4423 0.0096071 58.8532 0.978608 58.4423 2.36127C56.0917 7.62679 53.1832 12.625 49.7667 17.2703C49.0697 18.3328 48.792 18.8853 49.7667 20.1319C50.407 21.1009 52.6737 22.9936 54.1952 24.7928C56.4108 27.0028 58.2497 29.5584 59.6408 32.3578C60.1962 34.1598 59.2725 35.0806 57.428 35.0806Z" fill="#F1F8FF"/>
</svg>
