<svg width="126" height="44" viewBox="0 0 126 44" fill="none" xmlns="http://www.w3.org/2000/svg">
<g clip-path="url(#clip0_4652_4993)">
<mask id="mask0_4652_4993" style="mask-type:luminance" maskUnits="userSpaceOnUse" x="0" y="-15" width="144" height="59">
<path d="M0.380859 44H143.485V-14.6436H0.380859V44Z" fill="white"/>
</mask>
<g mask="url(#mask0_4652_4993)">
<path d="M14.4921 0.000396729C17.4831 0.000396729 18.4229 2.14807 19.2115 4.29237C19.5427 5.20295 27.3154 26.5113 27.5491 27.1509C27.6113 27.3293 27.5692 27.6222 27.2952 27.7283C27.0195 27.8326 22.981 29.4046 22.7573 29.4888C22.5337 29.5746 22.2832 29.4501 22.2025 29.2262C22.1185 29.0057 20.4422 24.3603 20.2539 23.8419H8.73358C8.552 24.3603 6.85557 29.0158 6.77991 29.2262C6.70257 29.44 6.46214 29.5847 6.22339 29.4888C5.98465 29.3945 1.93102 27.8225 1.68891 27.7283C1.45689 27.6374 1.35097 27.3731 1.43167 27.1509C1.7175 26.3531 9.37248 5.38641 9.76254 4.29237C10.5225 2.18005 11.4943 0.000396729 14.4921 0.000396729ZM0.816317 38.1283C0.574209 38.1283 0.380859 38.3303 0.380859 38.576V43.5564C0.380859 43.8021 0.574209 44.0007 0.816317 44.0007H28.156C28.4032 44.0007 28.5965 43.8021 28.5965 43.5564V38.576C28.5965 38.3303 28.4032 38.1283 28.156 38.1283H0.816317ZM14.4652 6.95845L10.5712 18.6646H18.4229L14.5156 6.95845H14.4652ZM72.8955 26.1528C72.3222 26.3464 71.9439 26.3935 71.4933 26.3935C70.5619 26.3935 70.0457 26.0249 70.0457 25.0689C70.0457 24.0725 70.7015 23.7392 71.9893 23.7392C72.3037 23.7392 72.6131 23.7847 72.7577 23.8352V24.5488C72.7577 25.318 72.7997 25.8229 72.8955 26.1528ZM76.206 27.294C75.5184 26.2488 75.3385 25.6328 75.3385 24.3149V21.6387C75.3385 20.1979 75.1703 19.6778 74.7904 19.1527C74.2608 18.4088 73.3781 18.0856 71.7556 18.0856C70.6073 18.0856 69.4926 18.2102 68.4132 18.4862L68.8033 20.3881C69.5329 20.2855 70.2979 20.1979 70.8376 20.1979C72.561 20.1979 72.7577 20.447 72.7577 21.7414V22.2244C72.3743 22.1217 71.9439 22.0477 71.4446 22.0477C68.8503 22.0477 67.4801 23.3185 67.4801 25.4224C67.4801 27.395 68.9445 28.4705 70.7284 28.4705C71.3941 28.4705 72.0902 28.3476 72.6417 28.1221C72.9746 27.9774 73.1192 27.8915 73.5496 27.6121C73.8085 27.9891 74.328 28.3746 74.5399 28.4469L76.206 27.294ZM101.868 26.1528C101.291 26.3464 100.92 26.3935 100.466 26.3935C99.5308 26.3935 99.0079 26.0249 99.0079 25.0689C99.0079 24.0725 99.672 23.7392 100.963 23.7392C101.278 23.7392 101.589 23.7847 101.73 23.8352V24.5488C101.73 25.318 101.77 25.8229 101.868 26.1528ZM105.182 27.294C104.489 26.2488 104.312 25.6328 104.312 24.3149V21.6387C104.312 20.1979 104.141 19.6778 103.758 19.1527C103.235 18.4088 102.35 18.0856 100.723 18.0856C99.5762 18.0856 98.4548 18.2102 97.3754 18.4862L97.7604 20.3881C98.4917 20.2855 99.2584 20.1979 99.8132 20.1979C101.526 20.1979 101.73 20.447 101.73 21.7414V22.2244C101.347 22.1217 100.92 22.0477 100.41 22.0477C97.8125 22.0477 96.4372 23.3185 96.4372 25.4224C96.4372 27.395 97.905 28.4705 99.6972 28.4705C100.371 28.4705 101.061 28.3476 101.607 28.1221C101.945 27.9774 102.085 27.8915 102.515 27.6121C102.777 27.9891 103.297 28.3746 103.51 28.4469L105.182 27.294ZM125.381 28.2467C125.381 28.2467 123.958 25.212 123.61 24.5219C123.219 23.7443 122.856 23.2074 122.055 23.0138V22.97C122.592 22.8674 123.019 22.5425 123.486 21.5495C123.928 20.5817 124.059 20.373 124.32 20.1424C124.576 19.9135 124.925 19.996 124.925 19.996L125.056 18.2068C124.685 18.1563 124.273 18.1546 123.848 18.1782C123.141 18.2203 122.777 18.4239 122.428 18.774C122.156 19.0416 121.971 19.4422 121.743 19.9017C121.5 20.4033 121.309 20.8072 121.057 21.3172C120.806 21.8407 120.688 22.0763 120.014 22.0763H119.575V14.1505H116.978V28.2467H119.575V24.1937L119.93 24.1869C120.675 24.1869 120.806 24.3738 121.199 25.1598C121.66 26.0973 122.543 28.2467 122.543 28.2467H125.381ZM52.2037 28.2467H55.2015L50.667 14.3861C50.1895 14.2262 49.5994 14.1269 48.9689 14.1269C48.2812 14.1269 48.0358 14.2178 47.4978 14.3861L42.6993 28.2467H45.576C45.576 28.2467 45.9644 27.0314 46.4217 25.525H51.3917C51.8355 27.0298 52.2037 28.2467 52.2037 28.2467ZM47.1514 23.2006C47.1514 23.2006 47.982 20.4184 48.1114 19.9859C48.441 18.8649 48.942 17.0841 48.942 17.0841H49.0244C49.0244 17.0841 49.4884 18.9289 49.7911 19.9657C49.9054 20.378 50.699 23.2006 50.699 23.2006H47.1514ZM80.6312 21.6151C79.7149 21.6151 78.9701 22.3641 78.9701 23.2814C78.9701 24.2055 79.7149 24.9494 80.6312 24.9494C81.5492 24.9494 82.2907 24.2055 82.2907 23.2814C82.2907 22.3641 81.5492 21.6151 80.6312 21.6151ZM58.7608 14.1505H56.1565V28.245H58.7608V14.1505ZM110.503 20.3259C111.942 20.3561 112.12 20.6541 112.12 21.8625V28.2467H114.701V21.6387C114.701 20.1979 114.533 19.6778 114.15 19.1527C113.62 18.4088 112.579 18.0856 110.819 18.0856C109.077 18.0856 107.968 18.2708 106.54 18.6966V28.2467H109.148V20.447C109.832 20.3477 109.953 20.3259 110.503 20.3259ZM65.2019 13.8997C63.5744 13.8997 62.6883 14.2228 62.1671 14.9651C61.7838 15.4919 61.614 16.0238 61.614 17.4679V18.6966H60.3211V20.8039H61.614V28.2467H64.1965L64.1898 20.8039H66.7638V18.6966H64.1898L64.1965 17.5672C64.1965 16.2746 64.3932 16.0238 66.1182 16.0238C66.3048 16.0238 66.515 16.0339 66.7386 16.0507L67.1455 14.0259C66.5083 13.9417 65.8559 13.8997 65.2019 13.8997ZM85.9223 14.031C86.8083 13.9788 88.7889 13.9047 90.0314 13.9047C90.2584 13.9047 90.4938 13.9064 90.7292 13.9182C93.1721 13.9182 94.5726 15.6989 94.5726 17.7894C94.5726 19.2116 93.922 20.1559 92.397 20.718C94.191 21.1152 95.1308 22.5173 95.1308 24.2324C95.1308 25.4914 94.776 26.4911 94.1254 27.1728C93.2814 28.0043 92.0036 28.4705 90.3021 28.4705C88.7889 28.4705 86.8891 28.4234 85.9223 28.3662V14.031ZM90.0314 16.3402C89.601 16.3402 89.068 16.3486 88.5401 16.3671V19.7519H90.0331C90.6249 19.7519 91.1007 19.587 91.4252 19.2688C91.7346 18.9692 91.896 18.5451 91.896 18.0418C91.896 16.9596 91.3109 16.3469 90.2231 16.3402H90.0314ZM90.0852 26.0401H90.1979C91.5547 26.0401 92.3852 25.318 92.3953 23.8638C92.3819 23.342 92.1818 22.8606 91.8237 22.5122C91.4319 22.1184 90.8771 21.913 90.2264 21.913H88.5401V26.0249C89.0159 26.035 89.5405 26.0367 90.0852 26.0401Z" fill="#4C4C4C"/>
</g>
</g>
<defs>
<clipPath id="clip0_4652_4993">
<rect width="125" height="43.9998" fill="white" transform="translate(0.376953)"/>
</clipPath>
</defs>
</svg>
