<svg width="253" height="40" viewBox="0 0 253 40" fill="none" xmlns="http://www.w3.org/2000/svg">
<g clip-path="url(#clip0_4652_3158)">
<path d="M64.5583 3.54424V5.005H77.0824C77.9173 5.005 79.1697 5.005 79.992 5.84044C80.8143 6.67588 80.827 7.92905 80.827 8.75183V21.2835C80.827 22.1189 80.827 23.3721 79.992 24.1949C79.1571 25.0303 77.9047 25.0303 77.0824 25.0303H71.0354C69.993 25.0303 68.6343 25.0303 68.1258 23.8809C67.6046 22.7316 68.3342 21.6885 68.9607 20.843L77.1077 9.98221H64.5836L59.574 16.6658C58.734 17.7847 58.0078 18.7544 58.0078 20.0075C58.0078 21.2607 58.6834 22.162 59.574 23.3493L60.8264 25.0202C62.0788 26.6911 63.3312 28.362 65.0011 29.1974C66.6709 30.0328 68.6444 30.0328 71.377 30.0328H76.7914C79.9288 30.0328 84.6095 30.0328 87.7468 26.8936C90.8842 23.7544 90.8842 19.1721 90.8842 17.5012V12.4885C90.8842 10.8177 90.8842 6.23538 87.7468 3.09614C84.6095 -0.0431053 79.9288 -0.0431053 76.7914 -0.0431053L68.1384 -0.0458901C67.3035 -0.0461432 66.2611 -0.04589 65.4312 0.789553C64.5962 1.625 64.5962 2.66803 64.5962 3.49841" fill="#515151"/>
<path d="M49.6308 10.0251H62.0284L47.1007 30.1264H34.7031L49.6308 10.0251Z" fill="#515151"/>
<path d="M0.798828 13.5695C0.798828 12.734 0.798828 11.691 1.63377 10.8606C2.46871 10.0302 3.51112 10.0251 4.341 10.0251H25.3157C28.0229 10.0251 30.0217 10.0251 31.6916 10.8606C33.3615 11.696 34.6012 13.3669 35.8663 15.0378L37.1187 16.7087C38.0068 17.8935 38.6849 18.7973 38.6849 20.0505C38.6849 21.3036 37.9587 22.2732 37.1187 23.3922L32.1091 30.0758H19.585L27.732 19.215C28.3569 18.3796 29.0881 17.3365 28.5669 16.177C28.0457 15.0277 26.6895 15.0277 25.6573 15.0277H15.8404V40.091H5.82112V15.0277H0.811479V13.5644" fill="#515151"/>
<path d="M102.762 26.5822C102.01 27.605 101.244 28.6126 100.492 29.6202V30.1923H102.61C103.647 28.81 104.189 28.0885 104.189 27.2556H106.263V30.1923H108.247V27.2556H110.322C110.322 28.0835 110.863 28.805 111.901 30.1923H114.018V29.6202L111.734 26.5822C113.656 25.1392 113.656 25.1392 113.656 23.2404V22.61H111.493V23.2404C111.493 25.5417 111.493 25.5417 109.239 25.5417H108.247V22.605H106.263V25.5417H105.272C103.017 25.5417 103.017 25.5417 103.017 23.2404V22.61H100.854V23.2404C100.854 25.1341 100.854 25.1341 102.762 26.5822Z" fill="#231F20"/>
<path fill-rule="evenodd" clip-rule="evenodd" d="M117.943 25.5696C117.943 23.9013 117.943 23.9013 119.79 23.9013C121.637 23.9013 121.637 23.9013 121.637 25.5696H117.943ZM117.943 26.9215H119.79C121.728 26.9063 122.3 26.9367 122.953 26.7861L123.719 26.6058V25.8691C123.719 24.621 123.719 22.2742 120.152 22.2742H119.431C115.863 22.2742 115.863 24.6185 115.863 25.8944V26.6159C115.863 27.9678 115.893 30.2362 119.81 30.2362C120.397 30.2362 121.718 30.2362 123.15 29.8767V28.2539H122.745L121.303 28.6134H119.77C117.923 28.6129 117.923 28.6129 117.923 26.9451L117.943 26.9215Z" fill="#231F20"/>
<path d="M127.051 22.481C127.051 23.6227 126.961 27.0632 125.158 29.4683V30.0556H127.367C128.675 28.3113 128.675 26.0303 128.675 24.1569H131.787V30.0556H133.771V22.486H127.066" fill="#231F20"/>
<path fill-rule="evenodd" clip-rule="evenodd" d="M138.184 25.5696C138.184 23.9013 138.184 23.9013 140.034 23.9013C141.881 23.9013 141.881 23.9013 141.881 25.5696H138.187M138.187 26.9215H140.036C141.974 26.9063 142.546 26.9367 143.199 26.7861L143.965 26.6058V25.8691C143.965 24.621 143.965 22.2742 140.398 22.2742H139.677C136.109 22.2742 136.109 24.6185 136.109 25.8944V26.6159C136.109 27.9678 136.139 30.2362 140.056 30.2362C140.643 30.2362 141.964 30.2362 143.396 29.8767V28.2539H142.991L141.549 28.6134H140.016C138.169 28.6129 138.169 28.6129 138.169 26.9451L138.187 26.9215Z" fill="#231F20"/>
<path d="M151.341 26.3291V26.1035C152.874 25.7137 152.874 24.7668 152.874 24.4048C152.874 23.6833 152.874 22.2402 149.231 22.2402C148.689 22.2402 147.427 22.2402 145.992 22.6023V24.225H146.397L147.839 23.863H149.507C150.663 23.863 150.724 23.863 150.724 24.7035C150.724 25.5314 150.724 25.5314 149.507 25.5314H147.839V26.8833H149.507C150.663 26.8833 150.724 26.8833 150.724 27.7111C150.724 28.5542 150.724 28.5542 149.507 28.5542H147.839L146.397 28.1921H145.992V29.8149C147.434 30.1744 148.699 30.1744 149.231 30.1744C152.874 30.1744 152.874 28.7314 152.874 28.0099C152.874 27.6504 152.874 26.7035 151.341 26.3263" fill="#231F20"/>
<path d="M161.207 22.481V25.3164H157.159V22.481H155.135V30.1265H157.159V27.0886H161.207V30.1265H162.978V22.481H161.207Z" fill="#231F20"/>
<path fill-rule="evenodd" clip-rule="evenodd" d="M169.304 26.3292C170.883 26.3292 170.883 26.3292 170.883 27.5014C170.883 28.6735 170.883 28.6735 169.304 28.6735H167.726V26.3292H169.304ZM176.389 22.5318H174.405V30.1014H176.389V22.5318ZM169.583 30.1014C171.971 30.1014 172.973 29.5748 172.973 27.5191C172.973 26.3925 172.973 24.7596 169.861 24.7596C169.411 24.7596 168.644 24.8052 167.743 25.0305V22.5039H165.76V30.0735H169.58L169.583 30.1014Z" fill="#231F20"/>
<path fill-rule="evenodd" clip-rule="evenodd" d="M180.943 25.5696C180.943 23.9013 180.943 23.9013 182.79 23.9013C184.637 23.9013 184.637 23.9013 184.637 25.5696H180.943ZM180.943 26.9215H182.79C184.728 26.9063 185.3 26.9367 185.953 26.7861L186.719 26.6058V25.8691C186.719 24.621 186.719 22.2742 183.152 22.2742H182.431C178.863 22.2742 178.863 24.6185 178.863 25.8944V26.6159C178.863 27.9678 178.893 30.2362 182.81 30.2362C183.397 30.2362 184.718 30.2362 186.15 29.8767V28.2539H185.745L184.303 28.6134H182.77C180.923 28.6129 180.923 28.6129 180.923 26.9451L180.943 26.9215Z" fill="#231F20"/>
<path fill-rule="evenodd" clip-rule="evenodd" d="M194.859 26.0759C194.859 24.0455 194.859 24.0911 197.541 24.0911C197.903 24.0911 198.399 24.1359 198.998 24.2713V27.5118L197.075 27.9928C194.851 27.9931 194.851 27.9931 194.851 26.0688M193.68 31.3093V33.0232C195.122 33.3853 196.286 33.3853 196.741 33.3853C200.84 33.3853 200.967 31.6106 200.967 29.5878V22.5498H200.319L199.358 23.2713C198.697 22.4131 197.088 22.3853 196.574 22.3853C192.754 22.3853 192.754 24.7903 192.754 25.8789V26.241C192.754 27.5042 192.754 29.5827 195.992 29.5827C196.969 29.5827 198.125 29.3118 198.978 28.6815V29.3118C198.978 31.641 198.933 31.6561 196.544 31.6561H195.507L194.065 31.2941H193.66L193.68 31.3093Z" fill="#231F20"/>
<path fill-rule="evenodd" clip-rule="evenodd" d="M207.004 22.3037C203.184 22.3037 203.184 24.5594 203.184 25.924V26.6455C203.184 27.9974 203.184 30.2657 207.004 30.2657H207.725C211.546 30.2657 211.546 28.01 211.546 26.6455V25.924C211.546 24.5721 211.546 22.3037 207.725 22.3037H207.004ZM207.363 23.9721C209.481 23.9721 209.481 23.9721 209.481 26.2733C209.481 28.5746 209.481 28.5746 207.363 28.5746C205.246 28.5746 205.246 28.5746 205.246 26.2733C205.246 23.9721 205.246 23.9721 207.363 23.9721Z" fill="#231F20"/>
<path fill-rule="evenodd" clip-rule="evenodd" d="M219.906 26.3291C219.906 28.5848 219.906 28.5848 217.697 28.5848C217.156 28.5848 216.465 28.5848 215.759 28.4043V24.6068L217.682 24.1258C219.906 24.1258 219.906 24.1557 219.906 26.3208M213.783 22.5233V33.1562H215.767V29.8651C216.668 30.0906 217.389 30.2701 218.474 30.2701C221.991 30.2701 221.991 27.6879 221.991 26.6499V25.9284C221.991 24.6651 221.991 22.3081 218.702 22.3081C217.019 22.3081 216.045 23.0448 215.514 23.4499L214.793 22.4879H213.801L213.783 22.5233Z" fill="#231F20"/>
<path fill-rule="evenodd" clip-rule="evenodd" d="M228.004 22.3037C224.184 22.3037 224.184 24.5594 224.184 25.924V26.6455C224.184 27.9974 224.184 30.2657 228.004 30.2657H228.725C232.546 30.2657 232.546 28.01 232.546 26.6455V25.924C232.546 24.5721 232.546 22.3037 228.725 22.3037H228.004ZM228.363 23.9721C230.481 23.9721 230.481 23.9721 230.481 26.2733C230.481 28.5746 230.481 28.5746 228.363 28.5746C226.246 28.5746 226.246 28.5746 226.246 26.2733C226.246 23.9721 226.246 23.9721 228.363 23.9721Z" fill="#231F20"/>
<path d="M238.377 22.304C237.656 22.304 236.709 22.304 235.265 22.666V24.2888H235.67L237.112 23.9293H238.959C239.951 23.9293 239.951 23.9293 239.951 24.5014C239.951 24.8913 239.951 25.0128 239.184 25.147L237.38 25.5976C236.343 25.8533 234.9 26.2432 234.9 27.8078C234.9 28.8457 234.9 30.2432 238.544 30.2432C239.265 30.2432 240.211 30.2432 241.656 29.8837V28.2609H241.251C240.649 28.4262 240.08 28.5622 239.854 28.6229H237.962C236.97 28.6229 236.97 28.6229 236.97 28.0508C236.97 27.7065 236.97 27.6305 237.39 27.509L238.397 27.2381L239.538 26.9521C240.575 26.6964 242.018 26.3217 242.018 24.7419C242.017 23.704 242.017 22.3065 238.374 22.3065" fill="#231F20"/>
<path d="M251.281 30.3799L252.753 29.2812C252.212 28.5596 252.212 28.5596 252.212 27.2812V22.5976H250.228V28.0913L248.305 28.5723C246.261 28.5723 246.261 28.5723 246.261 26.4837V22.585H244.277V26.7875C244.277 28.2761 244.277 30.3571 247.288 30.3571C248.867 30.3571 249.844 29.6204 250.375 29.2153L251.26 30.3875" fill="#231F20"/>
<path fill-rule="evenodd" clip-rule="evenodd" d="M100.992 4.37981V15.0127H103.155V12.076H104.868C107.803 12.076 110.106 12.076 110.106 8.22791C110.106 4.35449 107.806 4.35449 104.868 4.35449H100.997M103.161 10.1773V6.25323H105.767C107.705 6.25323 107.796 6.25323 107.796 8.22285C107.796 10.1317 107.796 10.1773 105.767 10.1773H103.161Z" fill="#231F20"/>
<path fill-rule="evenodd" clip-rule="evenodd" d="M115.666 7.26587C111.846 7.26587 111.846 9.52157 111.846 10.8861V11.6076C111.846 12.9595 111.846 15.2279 115.666 15.2279H116.387C120.208 15.2279 120.208 12.9722 120.208 11.6076V10.8861C120.208 9.53422 120.208 7.26587 116.387 7.26587H115.666ZM116.025 8.93422C118.143 8.93422 118.143 8.93422 118.143 11.2355C118.143 13.5368 118.143 13.5368 116.025 13.5368C113.908 13.5368 113.908 13.5368 113.908 11.2355C113.908 8.93422 113.908 8.93422 116.025 8.93422Z" fill="#231F20"/>
<path d="M126.04 15.2152C126.581 15.2152 127.978 15.2152 129.43 14.8532V13.2304H129.026L127.568 13.5899H126.713C124.203 13.5899 124.203 13.5899 124.203 11.2456C124.203 8.90126 124.203 8.90126 126.05 8.90126C127.614 8.90126 127.614 8.90126 127.988 10.3899L129.792 9.93923C129.792 9.21771 129.792 7.28101 126.402 7.28101H125.681C122.113 7.28101 122.113 9.5367 122.113 10.9013V11.6228C122.113 12.9747 122.113 15.243 126.035 15.243" fill="#231F20"/>
<path d="M135.655 15.2152C136.197 15.2152 137.593 15.2152 139.046 14.8532V13.2304H138.641L137.183 13.5899H136.328C133.818 13.5899 133.818 13.5899 133.818 11.2456C133.818 8.90126 133.818 8.90126 135.665 8.90126C137.229 8.90126 137.229 8.90126 137.603 10.3899L139.407 9.93923C139.407 9.21771 139.407 7.28101 136.017 7.28101H135.296C131.729 7.28101 131.729 9.5367 131.729 10.9013V11.6228C131.729 12.9747 131.729 15.243 135.65 15.243" fill="#231F20"/>
<path d="M148.306 15.2405L149.779 14.1418C149.237 13.4202 149.237 13.4202 149.237 12.1418V7.45821H147.254V12.9519L145.331 13.4329C143.286 13.4329 143.286 13.4329 143.286 11.3443V7.44556H141.303V11.6481C141.303 13.1367 141.303 15.2177 144.314 15.2177C145.892 15.2177 146.869 14.481 147.4 14.0759L148.286 15.2481" fill="#231F20"/>
<path fill-rule="evenodd" clip-rule="evenodd" d="M155.39 4.75955C154.413 4.75955 154.413 4.75955 153.932 4.21777L153.062 4.89372C154.008 6.11144 154.489 6.20258 155.87 6.20258H156.202C157.568 6.20258 158.064 6.1122 158.985 4.89372L158.115 4.21777C157.649 4.75955 157.649 4.75955 156.657 4.75955H155.38M159.048 15.2659L160.521 14.1671C159.979 13.4456 159.979 13.4456 159.979 12.1671V7.4836H157.996V12.9773L156.073 13.4583C154.074 13.4583 154.029 13.4583 154.029 11.3697V7.47094H152.045V11.6735C152.045 13.1621 152.045 15.2431 155.056 15.2431C156.635 15.2431 157.611 14.5064 158.143 14.1013L159.028 15.2735L159.048 15.2659Z" fill="#231F20"/>
<path d="M166.269 15.2152C166.811 15.2152 168.207 15.2152 169.659 14.8532V13.2304H169.255L167.797 13.5899H166.94C164.43 13.5899 164.43 13.5899 164.43 11.2456C164.43 8.90126 164.43 8.90126 166.277 8.90126C167.84 8.90126 167.84 8.90126 168.215 10.3899L170.019 9.93923C170.019 9.21771 170.019 7.28101 166.628 7.28101H165.907C162.34 7.28101 162.34 9.5367 162.34 10.9013V11.6228C162.34 12.9747 162.34 15.243 166.262 15.243" fill="#231F20"/>
<path d="M172.342 7.46841V15.038H174.326V12.1013H176.76C176.76 12.9292 177.301 13.6507 178.336 15.038H180.454V14.4659L178.169 11.4279C180.092 9.98486 180.092 9.98486 180.092 8.08613V7.45575H177.929V8.08613C177.929 10.3874 177.929 10.3874 175.675 10.3874H174.323V7.45068H172.34" fill="#231F20"/>
<path d="M189.546 15.2405L191.019 14.1418C190.477 13.4202 190.477 13.4202 190.477 12.1418V7.45821H188.494V12.9519L186.571 13.4329C184.527 13.4329 184.527 13.4329 184.527 11.3443V7.44556H182.543V11.6481C182.543 13.1367 182.543 15.2177 185.554 15.2177C187.133 15.2177 188.109 14.481 188.641 14.0759L189.526 15.2481" fill="#231F20"/>
<path fill-rule="evenodd" clip-rule="evenodd" d="M194.86 10.5569C194.86 8.88856 194.86 8.88856 196.709 8.88856C198.556 8.88856 198.556 8.88856 198.556 10.5569H194.862M194.862 11.9088H196.712C198.65 11.8936 199.222 11.924 199.875 11.7734L200.641 11.5931V10.8564C200.641 9.60831 200.641 7.26147 197.074 7.26147H196.353C192.785 7.26147 192.785 9.60578 192.785 10.8817V11.6032C192.785 12.9551 192.815 15.2235 196.732 15.2235C197.319 15.2235 198.64 15.2235 200.072 14.8615V13.2387H199.667L198.225 13.5982H196.692C194.842 13.5979 194.842 13.5979 194.842 11.9298L194.862 11.9088Z" fill="#231F20"/>
</g>
<defs>
<clipPath id="clip0_4652_3158">
<rect width="252" height="40" fill="white" transform="translate(0.798828)"/>
</clipPath>
</defs>
</svg>
